<svg>
  <symbol fill="none" xmlns="http://www.w3.org/2000/svg" viewBox="0 0 24 24" id="ingrey">
    <path d="M21.123 0H2.877C1.307 0 0 1.243 0 2.812v18.376C0 22.758 1.308 24 2.877 24h18.246C22.693 24 24 22.758 24 21.188V2.812C24 1.242 22.692 0 21.123 0zm-3.859 3.728c0-.393.327-.72.72-.72h2.288c.393 0 .72.327.72.72V5.95c0 .392-.327.72-.72.72H18.05a.726.726 0 01-.72-.72l-.065-2.223zM12.033 7.39c2.55 0 4.643 2.027 4.643 4.577s-2.093 4.578-4.643 4.578-4.643-2.027-4.643-4.578c0-2.485 2.092-4.577 4.643-4.577zm9.678 13.602c0 .392-.327.72-.72.72H3.009a.726.726 0 01-.72-.72V9.744h2.944c-.393.588-.524 1.635-.524 2.289 0 3.989 3.27 7.259 7.325 7.259 4.054 0 7.324-3.27 7.324-7.26 0-.653-.065-1.7-.589-2.288h3.009l-.066 11.248z" fill="#B3B3B3"></path>
  </symbol>
  <symbol fill="none" xmlns="http://www.w3.org/2000/svg" viewBox="0 0 24 21" id="twgrey">
    <path d="M23.346.42c-.98.588-2.027.98-3.139 1.242A4.838 4.838 0 0016.61.092c-2.746 0-4.904 2.29-4.904 5.036 0 .392.065.785.13 1.177C7.716 6.044 4.12 4.016 1.7.943a5.466 5.466 0 00-.654 2.55c0 1.766.85 3.27 2.224 4.185-.785 0-1.57-.261-2.224-.653v.13c0 2.42 1.7 4.513 3.924 4.97-.392.131-.85.197-1.308.197-.327 0-.654 0-.915-.066.654 2.027 2.42 3.466 4.577 3.531-1.7 1.374-3.793 2.158-6.147 2.158-.392 0-.785 0-1.177-.065a13.597 13.597 0 007.52 2.289c9.09 0 13.995-7.717 13.995-14.387v-.654c.98-.72 1.831-1.57 2.485-2.616-.85.393-1.831.654-2.812.785.98-.72 1.766-1.7 2.158-2.877z" fill="#B3B3B3"></path>
  </symbol>
  <symbol fill="none" xmlns="http://www.w3.org/2000/svg" viewBox="0 0 24 24" id="vkgrey">
    <g clip-path="url(#clip0)">
      <path d="M23.87 17.526c0-.066-.066-.13-.066-.13-.393-.72-1.243-1.701-2.42-2.748-.523-.523-.85-.85-.98-1.046-.262-.327-.328-.654-.197-.98.13-.262.458-.786 1.112-1.636.327-.457.588-.784.785-1.046C23.541 8.044 24.195 6.801 24 6.278l-.065-.13c-.066-.197-.197-.262-.393-.328-.196-.065-.458-.065-.785 0H18.9c-.13 0-.13.066-.13.066h-.066l-.065.065c-.066 0-.066.065-.131.13-.066.066-.066.132-.131.197-.392.98-.85 1.962-1.308 2.812-.327.523-.588.98-.85 1.373s-.458.654-.654.85l-.458.458c-.13.13-.261.13-.327.13-.065 0-.13-.065-.196-.065-.13-.065-.196-.196-.261-.327-.066-.13-.131-.261-.131-.457s-.066-.393-.066-.523V6.8c0-.261 0-.458-.065-.588 0-.131-.065-.262-.13-.393-.066-.13-.132-.261-.262-.327l-.393-.196c-.458-.13-.98-.13-1.7-.13-1.57 0-2.55.065-3.008.326-.196.066-.327.196-.458.393-.13.196-.196.261-.065.327.523.065.85.261 1.046.523l.065.13c.066.131.131.327.197.589.065.262.065.589.13.916a6.279 6.279 0 010 1.569c-.065.458-.065.785-.13.981-.066.261-.066.458-.197.588l-.13.262c0 .065-.066.065-.066.065a.583.583 0 01-.327.066c-.13 0-.261-.066-.392-.196-.196-.131-.327-.262-.523-.458a3.167 3.167 0 01-.589-.85c-.196-.393-.458-.785-.72-1.308l-.195-.392c-.131-.262-.327-.589-.524-1.047-.196-.458-.392-.85-.588-1.308-.066-.13-.196-.261-.327-.392h-.066c-.065-.065-.13-.065-.196-.13-.065 0-.196-.066-.261-.066H.85c-.393 0-.655.13-.786.261v.066C0 6.147 0 6.212 0 6.278c0 .065 0 .196.065.327a54.383 54.383 0 001.635 3.4c.589 1.112 1.112 1.962 1.504 2.616.458.654.85 1.308 1.308 1.897.458.588.72.98.916 1.111.13.197.261.262.327.393l.327.327c.196.196.523.457.85.72.392.26.785.522 1.308.85a6.105 6.105 0 001.635.653c.654.196 1.242.262 1.83.196h1.44a1 1 0 00.653-.261l.066-.066c.065-.065.065-.13.065-.261s.066-.196.066-.327c0-.327 0-.654.065-.981.065-.262.13-.523.196-.654.066-.13.196-.262.262-.392.13-.131.196-.131.196-.197.065 0 .065-.065.13-.065.197-.065.459 0 .72.196.262.196.523.458.785.72.261.261.523.588.85.98.327.328.654.654.85.785l.262.131c.196.13.392.196.654.262.261.065.523.13.719.065l3.204-.065c.327 0 .589-.066.72-.131.196-.131.261-.196.327-.327.065-.131.065-.262 0-.458 0 0 0-.13-.066-.196z" fill="#B3B3B3"></path>
    </g>
    <defs>
      <clipPath id="clip0">
        <path fill="#fff" d="M0 0h24v24H0z"></path>
      </clipPath>
    </defs>
  </symbol>
  <symbol fill="none" xmlns="http://www.w3.org/2000/svg" viewBox="0 0 24 24" id="fgrey">
    <path d="M24 22.692c0 .72-.589 1.308-1.308 1.308h-6.147v-9.286h3.139l.458-3.597h-3.597V8.828c0-1.046.261-1.765 1.766-1.765h1.896v-3.27c-.327-.065-1.439-.13-2.812-.13-2.746 0-4.643 1.7-4.643 4.773v2.681H9.613v3.597h3.139V24H1.308C.588 24 0 23.411 0 22.692V1.308C0 .588.589 0 1.308 0h21.384C23.412 0 24 .589 24 1.308v21.384z" fill="#B3B3B3"></path>
  </symbol>
  <symbol fill="none" xmlns="http://www.w3.org/2000/svg" id="iconboard">
    <path d="M34.548.452a1.015 1.015 0 00-.81-.294c-.126.012-3.117.296-7.22 1.673C13.166 5.943 4.33 18.89.221 28.256c-.259.618.264 1.446 1.046 1.378l4.538-.442-.441 4.538c-.049.653.585 1.34 1.378 1.046 16.305-7.429 26.25-18.8 28.1-33.514.027-.3-.08-.597-.294-.81zM21.41 22.788a60.09 60.09 0 01-5.219 4.236V9.721a32.623 32.623 0 015.22-3.476v16.543zM11.494 30.1a50.861 50.861 0 01-3.939 2.097l.393-4.036c.058-.525-.428-1.19-1.11-1.11l-4.035.392c1.363-2.891 5.034-9.624 11.356-15.89v16.88a57.998 57.998 0 01-2.665 1.667zm19.73-22.208c-1.194 3.537-3.512 8.643-7.781 12.953V5.232c2.78-1.343 7.03-2.547 9.19-2.866a37.061 37.061 0 01-1.41 5.525z" fill="#fff"></path>
  </symbol>
  <symbol fill="none" xmlns="http://www.w3.org/2000/svg" id="icondelivery">
    <path d="M26.355 15.979a4.378 4.378 0 00-4.373 4.373 4.378 4.378 0 004.373 4.372 4.378 4.378 0 004.373-4.372 4.378 4.378 0 00-4.373-4.373zm0 6.559a2.189 2.189 0 01-2.186-2.186c0-1.206.98-2.187 2.186-2.187s2.187.98 2.187 2.187c0 1.205-.98 2.186-2.187 2.186zm-14.941-6.559a4.378 4.378 0 00-4.373 4.373 4.378 4.378 0 004.373 4.372 4.378 4.378 0 004.373-4.372 4.378 4.378 0 00-4.373-4.373zm0 6.559a2.189 2.189 0 01-2.186-2.186c0-1.206.98-2.187 2.186-2.187s2.187.98 2.187 2.187c0 1.205-.98 2.186-2.187 2.186zM29.3 3.462a1.094 1.094 0 00-.977-.602h-5.758v2.186h5.084l2.977 5.921 1.954-.982-3.28-6.523z" fill="#fff"></path>
    <path d="M23.076 19.295h-8.273v2.186h8.273v-2.186zm-14.942 0h-3.79a1.093 1.093 0 100 2.186h3.79a1.093 1.093 0 100-2.186zm26.483-6.684l-2.15-2.77a1.092 1.092 0 00-.864-.422h-7.944V1.766c0-.604-.49-1.093-1.094-1.093H4.345a1.093 1.093 0 100 2.186h17.127v7.653c0 .604.49 1.093 1.093 1.093h8.502l1.593 2.051v5.639h-3.025a1.093 1.093 0 100 2.186h4.118c.604 0 1.093-.49 1.093-1.093v-7.106c0-.243-.08-.479-.23-.67zM8.062 13.756h-5.03a1.093 1.093 0 100 2.186h5.03a1.093 1.093 0 100-2.186zm2.514-4.301H1.247a1.093 1.093 0 100 2.187h9.33a1.093 1.093 0 100-2.187z" fill="#fff"></path>
    <path d="M12.362 5.155h-9.33a1.093 1.093 0 100 2.187h9.33a1.093 1.093 0 100-2.187z" fill="#fff"></path>
  </symbol>
  <symbol fill="none" xmlns="http://www.w3.org/2000/svg" id="iconmaterials">
    <path d="M33.83 12.418h-7.274l.003-.019a8.25 8.25 0 002.014-2.575 1.016 1.016 0 00-.91-1.471h-1.568a8.992 8.992 0 00-1.484-2.656 8.246 8.246 0 00-.397-3.241 1.016 1.016 0 00-1.683-.397L21.419 3.17a8.983 8.983 0 00-2.92-.827C17.732 1.44 16.848.724 15.922.261a1.017 1.017 0 00-1.471.91v1.636a8.992 8.992 0 00-2.655 1.484 8.246 8.246 0 00-3.242.397 1.016 1.016 0 00-.397 1.683L9.27 7.482a8.983 8.983 0 00-.828 2.923 8.283 8.283 0 00-1.705 2.013H1.17c-.561 0-1.016.455-1.016 1.017V17.5c0 .561.455 1.016 1.016 1.016h1.084V33.83c0 .561.455 1.016 1.017 1.016h4.065c.562 0 1.017-.455 1.017-1.016v-3.445l9.147-3.66 9.147 3.66v3.445c0 .561.455 1.016 1.017 1.016h4.065c.562 0 1.017-.455 1.017-1.016V18.516h1.084c.561 0 1.016-.455 1.016-1.016v-4.066c0-.56-.455-1.016-1.016-1.016zm-23.79-.695c.232-.18.375-.45.392-.743.068-1.135.392-2.2.962-3.168.236-.4.171-.908-.156-1.235l-.274-.274c.34-.01.684.006 1.031.05.291.037.584-.053.803-.248a7.01 7.01 0 012.924-1.563c.448-.116.762-.52.762-.984v-.402c.241.238.474.5.695.786.18.232.45.374.743.392a7 7 0 013.168.962c.4.236.907.171 1.235-.157l.274-.273c.01.34-.006.684-.05 1.031-.037.29.053.583.248.803a7.011 7.011 0 011.563 2.924c.116.448.52.761.984.761h.383a6.63 6.63 0 01-.767.696c-.232.18-.375.45-.392.743a7.858 7.858 0 01-.06.594h-4.134A3.053 3.053 0 0017.5 8.352a3.053 3.053 0 00-2.874 4.066H9.273c.234-.248.49-.48.767-.695zm8.476-.321a1.018 1.018 0 01-2.032 0 1.018 1.018 0 012.032 0zM6.32 32.813H4.287V18.516H6.32v14.297zm2.033-4.618v-5.128l6.41 2.564-6.41 2.564zm18.294 0l-6.41-2.564 6.41-2.564v5.128zm0-7.318l-9.147 3.66-9.147-3.66v-2.36h18.294v2.36zm4.066 11.936H28.68V18.516h2.033v14.297zm2.1-16.33H2.187v-2.032h30.626v2.033z" fill="#fff"></path>
  </symbol>
  <symbol fill="none" xmlns="http://www.w3.org/2000/svg" id="perfectfit">
    <path d="M41.836 60.031h-5.977v-4.25h2.663a1.992 1.992 0 100-3.984H35.86v-3.984h5.32a1.992 1.992 0 000-3.985h-5.32v-3.984h2.663a1.992 1.992 0 000-3.985H35.86v-3.984h5.32a1.992 1.992 0 000-3.984h-5.32v-3.985h2.663a1.992 1.992 0 100-3.984H35.86v-3.985h5.32a1.992 1.992 0 000-3.984h-5.32V7.97h2.663a1.992 1.992 0 000-3.985H35.86V1.992a1.992 1.992 0 00-3.984 0v58.04h-7.193L25.778 42.5h.127c1.1 0 1.992-.892 1.992-1.992V27.223c0-4.422-2.899-8.179-6.896-9.474a5.978 5.978 0 002.918-5.132 5.983 5.983 0 00-5.976-5.976 5.983 5.983 0 00-5.977 5.976 5.979 5.979 0 002.916 5.13c-3.999 1.294-6.9 5.052-6.9 9.476v13.285c0 1.1.892 1.992 1.992 1.992h.12l1.097 17.531H1.992c-1.1 0-1.992.892-1.992 1.992v3.985a1.992 1.992 0 003.984 0v-1.992h35.86v1.992a1.992 1.992 0 103.984 0v-3.985c0-1.1-.892-1.992-1.992-1.992zM17.943 10.625c1.098 0 1.992.894 1.992 1.992a1.994 1.994 0 01-1.992 1.992 1.994 1.994 0 01-1.992-1.992c0-1.098.893-1.992 1.992-1.992zm-5.977 16.598a5.98 5.98 0 015.974-5.973 5.98 5.98 0 015.973 5.973v11.293H11.966V27.223zm2.12 15.277h7.7L20.69 60.031h-5.507L14.087 42.5z" fill="#000"></path>
  </symbol>
  <symbol fill="none" xmlns="http://www.w3.org/2000/svg" id="phoneicon">
    <path d="M12.669 13.155c-.235.5-.704.751-1.173 1.002-.587.376-1.056.501-1.642.501-.821 0-1.643-.376-2.346-.626-.587-.251-1.056-.502-1.643-.752-1.642-1.128-3.519-3.133-4.457-4.761a11.785 11.785 0 01-.821-1.755C.352 5.887 0 5.136 0 4.134c0-.627.117-1.254.47-1.88.234-.501.468-1.002.938-1.253.352 0 .938-.125 1.29-.125h.235c.234.125.352.5.469.751.234.627.586 1.128.821 1.755.235.25.47.5.47.751 0 .627-1.643 1.504-1.643 2.005 0 .25.235.626.352.877.938 1.754 2.111 3.007 3.754 4.01.234.125.586.375.82.375.47 0 1.291-1.754 1.878-1.754.234 0 .469.25.704.501.469.376 1.055.627 1.524 1.003.235.125.587.25.704.501v.25c.118.251 0 .878-.117 1.254z" fill="#fff"></path>
  </symbol>
  <symbol fill="none" xmlns="http://www.w3.org/2000/svg" id="strong">
    <path d="M33.875 30.181V19.817h4.15c9.893 0 17.942-8.049 17.942-17.942C55.967.84 55.127 0 54.092 0h-6.027C41.037 0 34.94 4.063 32 9.962 29.058 4.062 22.962 0 15.933 0H9.908C8.873 0 8.033.84 8.033 1.875c0 9.893 8.049 17.942 17.942 17.942h4.15V30.18C13.325 31.152 0 45.081 0 62.125 0 63.16.84 64 1.875 64h60.25C63.16 64 64 63.16 64 62.125c0-17.044-13.325-30.973-30.125-31.944zM48.065 3.75h4.028c-.92 6.942-6.879 12.317-14.068 12.317h-4.027c.92-6.943 6.877-12.317 14.067-12.317zm-22.09 12.317c-7.19 0-13.148-5.375-14.068-12.317h4.026c7.19 0 13.148 5.375 14.069 12.317h-4.027zM3.81 60.25c.929-14.33 11.435-22.005 18.282-24.584v4.712c0 .572-.223 1.11-.628 1.515l-6.025 6.025a5.898 5.898 0 000 8.33l4.001 4.002H3.81zm20.933 0l-6.652-6.653a2.14 2.14 0 010-3.028l6.025-6.025a5.853 5.853 0 001.726-4.166v-5.83A28.366 28.366 0 0132 33.876c4.914 0 9.677 1.259 13.906 3.659L35.522 47.918a5.888 5.888 0 000 8.33l4.001 4.002h-14.78zm20.084 0l-6.653-6.653a2.14 2.14 0 010-3.028L49.1 39.643A28.253 28.253 0 0160.188 60.25H44.827z" fill="#000"></path>
  </symbol>
  <symbol fill="none" xmlns="http://www.w3.org/2000/svg" id="unique">
    <path d="M67.58 64.784c-.105-.135-2.63-3.336-7.98-6.493-2.61-1.541-6.209-3.24-10.814-4.482a69.333 69.333 0 002.564-13.706c.541-6.407.157-12.667-1.142-18.607-1.629-7.443-4.704-14.392-9.14-20.655a1.992 1.992 0 00-3.251 0 57.452 57.452 0 00-3.787 6.122A57.406 57.406 0 0030.243.84a1.992 1.992 0 00-3.251 0c-4.437 6.262-7.512 13.212-9.14 20.655-1.3 5.94-1.684 12.2-1.143 18.607a69.254 69.254 0 002.646 13.981c-4.245 1.204-7.67 2.76-10.234 4.18C3.467 61.392.623 64.55.504 64.682A1.992 1.992 0 001.992 68h64.016a1.992 1.992 0 001.572-3.216zM20.963 26.958l13.363-9.08a52.198 52.198 0 011.046 3.84L20.53 31.804c.073-1.56.212-3.18.433-4.846zm1.01-5.504a52.327 52.327 0 016.646-15.88 52.556 52.556 0 014.322 8.428l-10.967 7.452zm-1.477 15.19L36.18 25.987c.645 4.373.776 8.924.388 13.64a65.613 65.613 0 01-2.244 12.389 57.109 57.109 0 00-11.085 1.126 65.327 65.327 0 01-2.558-13.375 61.201 61.201 0 01-.184-3.123zm14.177 19.353c10.801 0 18.316 3.054 22.718 5.617a33.152 33.152 0 013.58 2.402H7.435c4.744-3.346 13.779-8.019 27.24-8.019zm4.771-50.423c6.314 9.995 8.986 21.436 7.947 34.053a65.47 65.47 0 01-2.508 13.298 54.31 54.31 0 00-6.45-.792 69.732 69.732 0 002.092-12.03c.541-6.407.157-12.667-1.142-18.607a56.366 56.366 0 00-3.169-9.964 52.205 52.205 0 013.23-5.958z" fill="#000"></path>
  </symbol>
  <symbol fill="none" xmlns="http://www.w3.org/2000/svg" id="phoneiconblack">
    <path d="M11.974 9.298c-.034-.102-.25-.253-.648-.452a19.972 19.972 0 00-.46-.256 32.7 32.7 0 01-.997-.562 11.171 11.171 0 00-.213-.15 2.395 2.395 0 00-.303-.183.558.558 0 00-.242-.06c-.114.001-.256.082-.426.244a4.15 4.15 0 00-.469.528c-.142.19-.293.367-.452.529-.159.162-.29.243-.392.243a.58.58 0 01-.191-.043 1.989 1.989 0 01-.175-.072c-.04-.02-.108-.06-.205-.12a5.297 5.297 0 00-.162-.098 8.956 8.956 0 01-2.002-1.483A8.951 8.951 0 013.154 5.36a4.945 4.945 0 00-.098-.162c-.06-.096-.1-.164-.12-.204a1.848 1.848 0 01-.072-.175.577.577 0 01-.043-.192c0-.102.081-.232.243-.392a4.96 4.96 0 01.529-.451c.19-.142.366-.298.528-.469.162-.17.243-.312.243-.426 0-.08-.02-.16-.06-.243a2.37 2.37 0 00-.183-.302l-.15-.214a18.685 18.685 0 01-.263-.455c-.091-.162-.19-.343-.299-.542a20.244 20.244 0 00-.255-.46c-.2-.397-.35-.613-.452-.647A.477.477 0 002.523 0c-.153 0-.354.028-.6.085a3.375 3.375 0 00-.585.18C1.054.382.753.73.435 1.303.145 1.838 0 2.366 0 2.889a3.291 3.291 0 00.137.938c.05.181.092.316.123.404.031.088.09.246.175.473.085.228.136.367.153.418a7.72 7.72 0 00.708 1.491c.448.728 1.06 1.48 1.836 2.255.776.775 1.527 1.387 2.254 1.836.438.273.935.509 1.492.708.051.017.19.068.417.153.228.085.385.144.473.175.088.031.223.072.405.124a3.272 3.272 0 00.938.136c.522 0 1.05-.145 1.585-.435.574-.318.92-.619 1.04-.903a3.35 3.35 0 00.178-.584c.057-.247.086-.447.086-.6 0-.08-.009-.14-.026-.18z" fill="#292929"></path>
  </symbol>
</svg>